<svg width="91" height="84" viewBox="0 0 91 84" fill="none" xmlns="http://www.w3.org/2000/svg">
<g clip-path="url(#clip0_1_337)">
<path d="M60.7697 44.4939C56.7028 38.6005 49.7765 35.0815 42.2413 35.0815C34.7068 35.0815 27.7798 38.6005 23.7136 44.4939L13.914 58.6947C12.2881 61.0511 11.5379 63.7727 11.7441 66.5647C11.9502 69.3573 13.0942 71.9578 15.0517 74.0862C17.0107 76.214 19.5992 77.6679 22.5373 78.2918C25.4754 78.915 28.4872 78.6492 31.2467 77.5225L31.4267 77.4482C38.371 74.6678 46.3082 74.6928 53.2352 77.5225C55.0218 78.2521 56.9145 78.621 58.8245 78.621C59.863 78.621 60.9076 78.5115 61.9426 78.2924C64.8807 77.6692 67.4692 76.2153 69.4288 74.0875C71.3871 71.9597 72.5317 69.3586 72.7386 66.5659C72.9454 63.7727 72.1952 61.0511 70.5693 58.694L60.7697 44.4939ZM65.4026 70.8888C62.91 73.5956 58.8776 74.4513 55.3679 73.0178C51.1962 71.3134 46.7184 70.4615 42.2392 70.4615C37.7642 70.4615 33.2871 71.3128 29.1182 73.0153L28.9996 73.0639C25.5168 74.4321 21.5437 73.5655 19.0786 70.8888C16.5887 68.1813 16.3053 64.3485 18.3739 61.3502L28.1742 47.1494C31.2619 42.6748 36.5203 40.0032 42.2413 40.0032C47.9623 40.0032 53.2214 42.6748 56.3098 47.1494L66.1087 61.3496C68.178 64.3491 67.8939 68.1826 65.4026 70.8888Z" fill="#F0A83E"/>
<path d="M16.5532 44.4752C19.4685 43.435 21.6833 41.2528 22.79 38.3301C23.8422 35.549 23.756 32.4092 22.5459 29.4885C21.3351 26.5697 19.1327 24.1869 16.345 22.7785C13.4151 21.2995 10.1971 21.0587 7.28659 22.1008C1.4311 24.1921 -1.25601 30.9136 1.29733 37.0875C3.33696 42.0015 8.09403 45.1036 12.9035 45.1036C14.1316 45.1036 15.3631 44.9012 16.5532 44.4752ZM6.24126 35.3197C4.7367 31.6816 6.05853 27.8116 9.18969 26.6933C9.75511 26.4909 10.3529 26.3903 10.9632 26.3903C11.9051 26.3903 12.878 26.6292 13.8144 27.1026C15.4982 27.9525 16.8435 29.4283 17.602 31.2569C18.3598 33.0869 18.4273 35.0187 17.7916 36.6975C17.2089 38.236 16.094 39.3671 14.6528 39.8814L14.6501 39.8827C11.5231 41.0023 7.75064 38.9546 6.24126 35.3197Z" fill="#F0A83E"/>
<path d="M35.5685 33.3495C42.8885 33.3495 48.844 27.0469 48.844 19.2999C48.844 11.551 42.8885 5.24707 35.5685 5.24707C28.2491 5.24707 22.2943 11.551 22.2943 19.2999C22.2943 27.0469 28.2491 33.3495 35.5685 33.3495ZM35.5685 10.1681C39.967 10.1681 43.5463 14.2648 43.5463 19.2999C43.5463 24.3331 39.967 28.4285 35.5685 28.4285C31.17 28.4285 27.592 24.3331 27.592 19.2999C27.592 14.2648 31.17 10.1681 35.5685 10.1681Z" fill="#F0A83E"/>
<path d="M58.4943 36.8014H58.495C59.621 37.1485 60.7698 37.3144 61.9137 37.3144C67.252 37.3144 72.4545 33.7051 74.4397 28.1583C75.583 24.9653 75.5078 21.5892 74.228 18.6525C72.889 15.5786 70.4073 13.3471 67.2396 12.3684C64.0719 11.391 60.6443 11.7983 57.5903 13.5162C54.6729 15.1578 52.4375 17.8198 51.2963 21.0127C48.8864 27.7484 52.1155 34.8312 58.4943 36.8014ZM56.3237 22.5647C57.0691 20.4798 58.4936 18.762 60.3354 17.7256C62.0392 16.7668 63.8982 16.5228 65.5689 17.0384C67.2389 17.5546 68.5697 18.7831 69.3172 20.4984C70.1246 22.3521 70.1591 24.5208 69.4123 26.6057C67.9236 30.7665 63.7754 33.2452 60.1657 32.1314C56.5588 31.0169 54.835 26.7255 56.3237 22.5647Z" fill="#F0A83E"/>
<path d="M86.4522 35.1616L86.4501 35.1596C81.402 31.6958 73.8523 33.1971 69.6193 38.5082C65.3904 43.8219 66.0517 50.9655 71.0921 54.432C72.9304 55.697 75.1025 56.3016 77.3255 56.3016C81.2 56.3016 85.231 54.4646 87.925 51.0866C92.1539 45.7729 91.4933 38.6293 86.4522 35.1616ZM83.6671 48.1588C81.1676 51.2928 76.9414 52.3324 74.2447 50.4768C71.55 48.6238 71.3859 44.5668 73.8785 41.4347C75.5355 39.3556 77.9557 38.1989 80.1864 38.1989C81.3145 38.1989 82.3943 38.4948 83.3017 39.118C85.9943 40.9729 86.1577 45.0286 83.6671 48.1588Z" fill="#F0A83E"/>
</g>
<defs>
<clipPath id="clip0_1_337">
<rect width="90.3782" height="83.9532" fill="white" transform="translate(0.331909)"/>
</clipPath>
</defs>
</svg>
