<svg width="15" height="14" viewBox="0 0 15 14" fill="none" xmlns="http://www.w3.org/2000/svg">
<g clip-path="url(#clip0_1_184)">
<path d="M10.0308 7.41982C9.35578 6.43704 8.20622 5.85022 6.95561 5.85022C5.70512 5.85022 4.55545 6.43704 3.88059 7.41982L2.25415 9.78793C1.9843 10.1809 1.85979 10.6347 1.89401 11.1003C1.92823 11.566 2.11808 11.9997 2.44298 12.3546C2.76811 12.7094 3.19772 12.9519 3.68535 13.0559C4.17298 13.1599 4.67286 13.1155 5.13085 12.9277L5.16072 12.9153C6.31326 12.4516 7.63059 12.4558 8.78026 12.9277C9.07678 13.0493 9.39092 13.1108 9.70792 13.1108C9.88027 13.1108 10.0536 13.0926 10.2254 13.056C10.7131 12.9521 11.1427 12.7097 11.4679 12.3548C11.7929 12 11.9829 11.5662 12.0172 11.1005C12.0516 10.6347 11.927 10.1809 11.6572 9.78783L10.0308 7.41982ZM10.7997 11.8214C10.386 12.2728 9.71673 12.4155 9.13423 12.1765C8.44186 11.8922 7.69868 11.7502 6.95527 11.7502C6.21255 11.7502 5.46949 11.8921 4.77758 12.176L4.75789 12.1841C4.17985 12.4123 3.52044 12.2678 3.11132 11.8214C2.69807 11.3699 2.65103 10.7308 2.99436 10.2308L4.62091 7.86266C5.13337 7.11647 6.0061 6.67096 6.95561 6.67096C7.90513 6.67096 8.77797 7.11647 9.29055 7.86266L10.9169 10.2307C11.2603 10.7309 11.2132 11.3701 10.7997 11.8214Z" fill="white"/>
<path d="M2.69223 7.41662C3.17609 7.24316 3.54368 6.87925 3.72735 6.39187C3.90199 5.9281 3.88768 5.40451 3.68684 4.91744C3.48588 4.4307 3.12036 4.03336 2.65767 3.79848C2.17141 3.55186 1.63732 3.5117 1.15426 3.68548C0.182431 4.03422 -0.263545 5.1551 0.16023 6.18466C0.498746 7.00412 1.28827 7.52141 2.0865 7.52141C2.29032 7.52141 2.49471 7.48765 2.69223 7.41662ZM0.980771 5.88986C0.731061 5.28317 0.950444 4.63781 1.47012 4.45132C1.56396 4.41757 1.66318 4.4008 1.76446 4.4008C1.92079 4.4008 2.08226 4.44064 2.23768 4.51957C2.51714 4.66131 2.74041 4.9074 2.8663 5.21235C2.99207 5.51751 3.00329 5.83966 2.89777 6.11961C2.80107 6.37617 2.61602 6.5648 2.37684 6.65057L2.37638 6.65078C1.85739 6.83749 1.23128 6.49601 0.980771 5.88986Z" fill="white"/>
<path d="M5.84803 5.56136C7.06293 5.56136 8.05136 4.51033 8.05136 3.21844C8.05136 1.92624 7.06293 0.875 5.84803 0.875C4.63324 0.875 3.64493 1.92624 3.64493 3.21844C3.64493 4.51033 4.63324 5.56136 5.84803 5.56136ZM5.84803 1.69563C6.57805 1.69563 7.17211 2.3788 7.17211 3.21844C7.17211 4.05777 6.57805 4.74072 5.84803 4.74072C5.11801 4.74072 4.52418 4.05777 4.52418 3.21844C4.52418 2.3788 5.11801 1.69563 5.84803 1.69563Z" fill="white"/>
<path d="M9.65321 6.13698H9.65333C9.84021 6.19487 10.0309 6.22253 10.2207 6.22253C11.1067 6.22253 11.9702 5.62065 12.2997 4.69566C12.4894 4.16321 12.4769 3.6002 12.2645 3.11047C12.0423 2.59788 11.6304 2.22575 11.1047 2.06255C10.5789 1.89955 10.01 1.96748 9.50318 2.25395C9.01898 2.52771 8.64797 2.97162 8.45857 3.50407C8.0586 4.6273 8.59452 5.80843 9.65321 6.13698ZM9.29295 3.76288C9.41667 3.41521 9.6531 3.12874 9.95877 2.95592C10.2416 2.79602 10.5501 2.75532 10.8274 2.84131C11.1046 2.9274 11.3254 3.13226 11.4495 3.4183C11.5835 3.72742 11.5892 4.08908 11.4653 4.43675C11.2182 5.1306 10.5297 5.54396 9.93062 5.35821C9.33198 5.17236 9.04588 4.45673 9.29295 3.76288Z" fill="white"/>
<path d="M14.2932 5.86352L14.2929 5.8632C13.455 5.28556 12.202 5.53593 11.4995 6.42161C10.7976 7.30771 10.9074 8.49898 11.7439 9.07704C12.049 9.288 12.4095 9.38883 12.7785 9.38883C13.4215 9.38883 14.0905 9.08249 14.5377 8.51917C15.2395 7.63306 15.1299 6.44179 14.2932 5.86352ZM13.831 8.03093C13.4161 8.55356 12.7147 8.72692 12.2671 8.41748C11.8199 8.10848 11.7927 7.43194 12.2064 6.90963C12.4814 6.56292 12.8831 6.37002 13.2533 6.37002C13.4405 6.37002 13.6197 6.41936 13.7703 6.52329C14.2172 6.83262 14.2443 7.50895 13.831 8.03093Z" fill="white"/>
</g>
<defs>
<clipPath id="clip0_1_184">
<rect width="15" height="14" fill="white"/>
</clipPath>
</defs>
</svg>
